<?xml version="1.0" encoding="utf-8"?>
<!-- Generator: Adobe Illustrator 27.5.0, SVG Export Plug-In . SVG Version: 6.00 Build 0)  -->
<svg version="1.1" xmlns="http://www.w3.org/2000/svg" xmlns:xlink="http://www.w3.org/1999/xlink" x="0px" y="0px"
	 viewBox="0 0 750 500" style="enable-background:new 0 0 750 500;" xml:space="preserve">
<g id="BACKGROUND">
	<rect style="fill:#EDF0FF;" width="750" height="500"/>
</g>
<g id="OBJECTS">
	<g>
		<polygon style="fill:#F6F6FE;" points="359.04,450 137.83,450 0,181.85 0,0 127.75,0 		"/>
		<polygon style="fill:#FFFFFF;" points="661.96,0 430.66,450 149.45,450 380.74,0 		"/>
		<path style="fill:#DCDCFE;" d="M61.577,450.005c-2.026-13.889-4.191-34.226,3.324-46.082c3.045-4.804,7.411-8.645,10.587-13.364
			c8.438-12.54,7.26-28.89,7.554-44.001c0.294-15.112,3.823-32.42,17.065-39.707c6.263-3.447,13.916-4.086,19.703-8.284
			c9.676-7.019,10.552-20.718,13.006-32.417c2.454-11.699,11.123-25.073,22.841-22.711c3.263,0.658,6.211,2.53,9.509,2.978
			c10.872,1.475,17.237-11.964,18.566-22.854c1.329-10.891,2.856-24.307,13.054-28.352c11.555-4.583,25.513,7.267,36.417,1.298
			c7.176-3.928,8.732-13.296,10.432-21.298c2.442-11.494,7.005-22.892,15.295-31.22c8.29-8.328,20.806-13.067,32.127-9.917
			c15.404,4.286,26.917,21.874,42.736,19.544c14.778-2.177,21.112-20.009,33.287-28.663c9.526-6.772,23.118-7.239,33.087-1.138
			c11.582,7.089,18.839,22.097,32.328,23.659c12.146,1.407,22.161-9.04,33.758-12.915c14.479-4.839,31.959,2.161,39.096,15.657
			c5.092,9.63,6.043,22.59,15.46,28.065c10.652,6.193,24.655-1.783,36.348,2.101c10.797,3.586,15.881,15.808,18.411,26.9
			c2.53,11.093,4.292,23.324,12.555,31.146c8.584,8.126,21.634,9.013,32.051,14.6c11.081,5.942,18.889,17.603,20.163,30.112
			c1.427,14.014-4.626,29.294,2.097,41.673c11.059,20.363,47.868,16.861,54.973,38.917c4.143,12.862-5.219,27.078-1.479,40.063
			c2.29,7.95,8.984,13.673,14.405,19.923c5.421,6.25,9.165,18.632,6.028,26.287H61.577z"/>
	</g>
	<g>
		<g>
			<path style="fill:#E0DDDC;" d="M420,378.505H230c-5.523,0-10-4.477-10-10v-277c0-5.523,4.477-10,10-10h190
				c5.523,0,10,4.477,10,10v277C430,374.028,425.523,378.505,420,378.505z"/>
			<g>
				<path style="fill:#EDEBEB;" d="M304.49,320.221h-57.869c-5.5,0-10-4.5-10-10l0,0c0-5.5,4.5-10,10-10h57.869c5.5,0,10,4.5,10,10
					l0,0C314.49,315.721,309.99,320.221,304.49,320.221z"/>
				<path style="fill:#EDEBEB;" d="M405.838,360.221H246.621c-5.5,0-10-4.5-10-10l0,0c0-5.5,4.5-10,10-10h159.217
					c5.5,0,10,4.5,10,10l0,0C415.838,355.721,411.338,360.221,405.838,360.221z"/>
				<path style="fill:#EDEBEB;" d="M302.49,184.09h-53.869c-6.6,0-12-5.4-12-12v-53.87c0-6.6,5.4-12,12-12h53.869
					c6.6,0,12,5.4,12,12v53.87C314.49,178.69,309.09,184.09,302.49,184.09z"/>
				<path style="fill:#EDEBEB;" d="M302.49,284.09h-53.869c-6.6,0-12-5.4-12-12v-53.87c0-6.6,5.4-12,12-12h53.869
					c6.6,0,12,5.4,12,12v53.87C314.49,278.69,309.09,284.09,302.49,284.09z"/>
			</g>
		</g>
		<g>
			<path style="fill:#F5F1EB;" d="M470,348.505H280c-5.523,0-10-4.477-10-10v-277c0-5.523,4.477-10,10-10h190
				c5.523,0,10,4.477,10,10v277C480,344.028,475.523,348.505,470,348.505z"/>
			<path style="fill:#FFFFFF;" d="M456.913,336.968H293.087c-6.6,0-12-5.4-12-12V87.577c0-6.6,5.4-12,12-12h163.826
				c6.6,0,12,5.4,12,12v237.391C468.913,331.568,463.513,336.968,456.913,336.968z"/>
			<g>
				<g>
					<g>
						<path style="fill:#E3DED5;" d="M458.76,134.221H391.24c-2.2,0-4.001-1.8-4.001-4.001l0,0c0-2.2,1.8-4.001,4.001-4.001h67.521
							c2.2,0,4.001,1.8,4.001,4.001l0,0C462.761,132.421,460.961,134.221,458.76,134.221z"/>
						<path style="fill:#E3DED5;" d="M427.673,114.221h-37.398c-1.669,0-3.035-1.366-3.035-3.035v-1.931
							c0-1.669,1.366-3.035,3.035-3.035h37.398c1.669,0,3.035,1.366,3.035,3.035v1.931
							C430.708,112.855,429.342,114.221,427.673,114.221z"/>
						<path style="fill:#E3DED5;" d="M458.76,154.221H391.24c-2.2,0-4.001-1.8-4.001-4.001l0,0c0-2.2,1.8-4.001,4.001-4.001h67.521
							c2.2,0,4.001,1.8,4.001,4.001l0,0C462.761,152.421,460.961,154.221,458.76,154.221z"/>
						<path style="fill:#E3DED5;" d="M458.76,174.221H391.24c-2.2,0-4.001-1.8-4.001-4.001l0,0c0-2.2,1.8-4.001,4.001-4.001h67.521
							c2.2,0,4.001,1.8,4.001,4.001l0,0C462.761,172.421,460.961,174.221,458.76,174.221z"/>
						<path style="fill:#E3DED5;" d="M458.76,194.221H294.23c-2.2,0-4.001-1.8-4.001-4.001l0,0c0-2.2,1.8-4.001,4.001-4.001h164.53
							c2.2,0,4.001,1.8,4.001,4.001l0,0C462.761,192.421,460.961,194.221,458.76,194.221z"/>
						<path style="fill:#E3DED5;" d="M458.76,244.221H391.24c-2.2,0-4.001-1.8-4.001-4.001l0,0c0-2.2,1.8-4.001,4.001-4.001h67.521
							c2.2,0,4.001,1.8,4.001,4.001l0,0C462.761,242.421,460.961,244.221,458.76,244.221z"/>
						<path style="fill:#E3DED5;" d="M458.76,224.221H391.24c-2.2,0-4.001-1.8-4.001-4.001l0,0c0-2.2,1.8-4.001,4.001-4.001h67.521
							c2.2,0,4.001,1.8,4.001,4.001l0,0C462.761,222.421,460.961,224.221,458.76,224.221z"/>
						<path style="fill:#E3DED5;" d="M458.76,264.221H391.24c-2.2,0-4.001-1.8-4.001-4.001l0,0c0-2.2,1.8-4.001,4.001-4.001h67.521
							c2.2,0,4.001,1.8,4.001,4.001l0,0C462.761,262.421,460.961,264.221,458.76,264.221z"/>
						<path style="fill:#E3DED5;" d="M458.76,284.221H391.24c-2.2,0-4.001-1.8-4.001-4.001l0,0c0-2.2,1.8-4.001,4.001-4.001h67.521
							c2.2,0,4.001,1.8,4.001,4.001l0,0C462.761,282.421,460.961,284.221,458.76,284.221z"/>
						<path style="fill:#E3DED5;" d="M458.76,304.221H294.23c-2.2,0-4.001-1.8-4.001-4.001l0,0c0-2.2,1.8-4.001,4.001-4.001h164.53
							c2.2,0,4.001,1.8,4.001,4.001l0,0C462.761,302.421,460.961,304.221,458.76,304.221z"/>
						<path style="fill:#E3DED5;" d="M458.76,324.221H294.23c-2.2,0-4.001-1.8-4.001-4.001l0,0c0-2.2,1.8-4.001,4.001-4.001h164.53
							c2.2,0,4.001,1.8,4.001,4.001l0,0C462.761,322.421,460.961,324.221,458.76,324.221z"/>
					</g>
				</g>
				<g>
					<g>
						<path style="fill:#E3DED5;" d="M464.36,130.22c0,1.62-0.66,3.08-1.72,4.15c-1.07,1.06-2.54,1.72-4.15,1.72H410.2
							c-2.56-3.58-4.66-7.53-6.2-11.74h54.49C461.72,124.35,464.36,126.99,464.36,130.22z"/>
						<path style="fill:#E3DED5;" d="M431.034,110.221c0,1.62-0.66,3.08-1.72,4.15c-1.07,1.06-2.54,1.72-4.15,1.72h-25.33
							c-0.53-2.88-0.8-5.86-0.8-8.89c0-0.92,0.02-1.83,0.07-2.73c0-0.04,0-0.08,0.01-0.12h26.05
							C428.394,104.351,431.034,106.991,431.034,110.221z"/>
						<path style="fill:#E3DED5;" d="M464.36,151.15c0,1.61-0.66,3.08-1.72,4.15c-0.14,0.14-0.29,0.27-0.44,0.4h-0.01
							c-1.01,0.82-2.3,1.32-3.7,1.32h-7.7c-12.23,0-23.45-4.42-32.12-11.74h39.82C461.72,145.28,464.36,147.92,464.36,151.15z"/>
					</g>
				</g>
			</g>
			<path style="fill:#E0DDDC;" d="M412.984,39.516h-26.489c0-6.348-5.146-11.495-11.495-11.495s-11.495,5.146-11.495,11.495h-26.489
				c-5.523,0-10,4.477-10,10v7.978c0,5.523,4.477,10,10,10h75.967c5.523,0,10-4.477,10-10v-7.978
				C422.984,43.994,418.507,39.516,412.984,39.516z M375,43.43c-2.161,0-3.913-1.752-3.913-3.913c0-2.161,1.752-3.913,3.913-3.913
				s3.913,1.752,3.913,3.913C378.913,41.678,377.161,43.43,375,43.43z"/>
			
				<rect x="435.404" y="92.669" style="fill:none;stroke:#211F20;stroke-width:0.5;stroke-linecap:round;stroke-linejoin:round;stroke-miterlimit:10;" width="23.087" height="25.304"/>
			<path style="fill:none;stroke:#F56438;stroke-width:3;stroke-miterlimit:10;" d="M438.043,103.632
				c2.622,3.112,5.243,6.225,7.865,9.337c3.314-5.099,6.628-10.198,9.942-15.297"/>
		</g>
		<g>
			<g>
				<path style="fill:#FFC454;" d="M370.11,163.73c-7.28,7.7-17.59,12.49-29.02,12.49c-12.61,0-23.86-5.84-31.18-14.96
					c-0.01-0.24-0.02-0.49-0.02-0.73c0.75-0.75,1.3-1.58,2.26-2.03c5.38-2.54,11.2-4.13,17.11-4.7c6.92-0.66,13.7,0.25,20.65,0.51
					c7.46,0.28,15.06,3.88,20.15,9.36C370.08,163.69,370.1,163.71,370.11,163.73z"/>
				<g>
					<path style="fill:#FC916D;" d="M341.535,165.989c-5.235,0-9.975-5.62-12.427-12.124c2.375-3.609,4.476-17.05,4.119-23.094
						l14.234,11.424c-0.009,0.162-0.017,0.34-0.017,0.536c-0.008,1.43,0.187,3.439,0.69,5.78c0.366,1.651,1.349,4.11,2.073,6.008
						C350.878,159.73,346.77,165.989,341.535,165.989z"/>
					<path style="fill:#FC916D;" d="M333.18,134.89c0.09-1.56,0.12-2.97,0.05-4.12l3.28,2.63
						C335.63,134.23,334.47,134.78,333.18,134.89z"/>
					<path style="fill:#211F20;" d="M348.132,148.512c-5.321-2.665-9.441-7.653-10.999-13.399c3.048,2.945,6.632,5.423,10.309,7.619
						C347.434,144.161,347.63,146.17,348.132,148.512z"/>
					<path style="fill:#FC916D;" d="M335.22,112.466c3.883-1.879,8.276-2.691,12.574-2.323c4.298,0.368,8.485,2.214,11.993,4.726
						c1.32,7.007,1.847,14.164,1.565,21.289c-0.091,2.312-0.325,4.776-1.763,6.588c-0.989,1.247-2.468,2.047-4.016,2.415
						c-1.548,0.368-3.168,0.331-4.746,0.125c-6.557-0.86-13.646-6.083-17.146-11.694l-0.072-5.978
						c0.096-1.393,0.192-2.785,0.288-4.177L335.22,112.466z"/>
					<path style="fill:#FC916D;" d="M338.282,129.304c0,3.101-2.514,5.614-5.614,5.614c-3.101,0-5.614-2.514-5.614-5.614
						c0-3.101,2.514-5.614,5.614-5.614C335.769,123.69,338.282,126.203,338.282,129.304z"/>
					
						<path style="fill:none;stroke:#231F20;stroke-width:0.4256;stroke-linecap:round;stroke-linejoin:round;stroke-miterlimit:10;" d="
						M353.347,125.133c0.065,1.509,0.471,3.003,1.178,4.337c0.356-0.221,0.92-0.175,1.219,0.119
						c0.299,0.294,0.402,0.754,0.315,1.165c-0.086,0.41-0.344,0.771-0.665,1.041c-0.322,0.269-0.706,0.454-1.098,0.604"/>
					<path style="fill:#231F20;" d="M349.053,126.477c0,0.683-0.408,1.237-0.911,1.237c-0.503,0-0.911-0.554-0.911-1.237
						c0-0.684,0.408-1.238,0.911-1.238C348.645,125.24,349.053,125.794,349.053,126.477z"/>
					<path style="fill:#231F20;" d="M357.807,126.51c0,0.684-0.408,1.238-0.911,1.238c-0.503,0-0.911-0.554-0.911-1.238
						c0-0.683,0.408-1.238,0.911-1.238C357.399,125.273,357.807,125.827,357.807,126.51z"/>
					<path style="fill:#231F20;" d="M347.503,122.146c0.875-0.174,1.773-0.174,2.663-0.244c0.287-0.023,0.605-0.069,0.786-0.292
						c0.139-0.171,0.163-0.404,0.176-0.623c0.018-0.29,0.024-0.596-0.106-0.856c-0.169-0.339-0.546-0.538-0.923-0.58
						c-0.377-0.042-0.755,0.05-1.116,0.167c-1.127,0.365-2.173,0.976-3.044,1.778c-0.349,0.321-0.675,0.68-0.874,1.111
						c-0.063,0.137-0.114,0.285-0.108,0.436c0.003,0.086,0.042,0.296,0.147,0.321c0.105,0.024,0.214-0.144,0.279-0.206
						c0.189-0.182,0.402-0.338,0.628-0.469C346.473,122.419,346.984,122.25,347.503,122.146z"/>
					<path style="fill:#231F20;" d="M358.352,122.751c-0.875-0.174-1.773-0.174-2.663-0.244c-0.287-0.023-0.605-0.069-0.786-0.292
						c-0.139-0.17-0.163-0.404-0.176-0.624c-0.018-0.29-0.024-0.595,0.106-0.856c0.169-0.339,0.546-0.538,0.923-0.58
						c0.377-0.042,0.755,0.05,1.116,0.167c1.127,0.365,2.173,0.975,3.044,1.777c0.349,0.321,0.675,0.68,0.874,1.111
						c0.063,0.137,0.114,0.285,0.108,0.436c-0.003,0.086-0.042,0.296-0.147,0.321c-0.105,0.025-0.214-0.144-0.279-0.206
						c-0.189-0.182-0.402-0.337-0.628-0.469C359.383,123.023,358.871,122.854,358.352,122.751z"/>
				</g>
				<path style="fill:#211F20;" d="M355.01,155.01c-1.61-0.38-3.24-0.61-4.87-0.69h-0.01c-0.72-1.87-1.64-4.22-2-5.81
					c-0.32-1.49-0.52-2.84-0.61-4c1.11,0.37,2.22,0.63,3.31,0.77c1.29,0.17,2.6,0.23,3.88,0.04
					C355.45,148.47,355.51,151.77,355.01,155.01z"/>
				<path style="fill:#211F20;" d="M362.76,118.25c-0.95,0.7-2.29,0.37-3.38-0.07c-3.1-1.26-5.93-3.21-8.2-5.67
					c-0.87,2.45-3.17,4.32-5.73,4.68c-1.62,0.23-3.51-0.01-4.66,1.15c-0.63,0.64-0.86,1.56-1.17,2.4c-0.64,1.73-1.73,3.28-3.11,4.48
					c-1-0.95-2.35-1.53-3.84-1.53c-3.1,0-5.62,2.51-5.62,5.61c0,3.1,2.52,5.62,5.62,5.62c0.17,0,0.34-0.01,0.51-0.03
					c-0.41,6.63-2.13,15.96-4.04,18.92c-5.87,0.58-11.65,2.17-16.99,4.69c-0.22,0.1-0.41,0.22-0.59,0.36
					c3.5-4.23,6.17-12.02,7.12-16.69c1.1-5.4,1.2-10.95,2.12-16.38c0.81-4.84,2.32-9.65,5.1-13.69c2.79-4.04,6.98-7.26,11.8-8.18
					c4.67-0.89,9.62,0.64,12.78,4.21c0.3-0.51,0.54-1.17,1.18-1.51c0.71-0.36,1.55-0.36,2.35-0.26c4.46,0.54,8.4,4.05,9.47,8.41
					C363.78,116,363.77,117.51,362.76,118.25z"/>
				<path style="fill:#FFFFFF;" d="M353.259,138.505c0.556,0.008,1.171-0.086,1.529-0.512c0.466-0.555,0.227-1.497-0.391-1.874
					c-0.619-0.377-1.464-0.235-2.027,0.22c-0.143-0.727-0.569-1.394-1.167-1.831c-0.598-0.437-1.363-0.639-2.099-0.555
					c-0.326,0.037-0.656,0.134-0.909,0.342c-1.153,0.949,0.681,2.442,1.434,2.983C350.68,138.036,351.959,138.486,353.259,138.505z"
					/>
			</g>
			<path style="fill:none;stroke:#211F20;stroke-linecap:round;stroke-linejoin:round;stroke-miterlimit:10;" d="M381.09,136.22
				c0,10.66-4.17,20.34-10.98,27.51c-7.28,7.7-17.59,12.49-29.02,12.49c-12.61,0-23.86-5.84-31.18-14.96
				c-5.52-6.85-8.82-15.56-8.82-25.04c0-22.09,17.91-40,40-40S381.09,114.13,381.09,136.22z"/>
		</g>
		<g>
			<g>
				<g>
					<path style="fill:#FC916D;" d="M337.295,272.188c-5.235,0-9.976-5.62-12.427-12.124c2.375-3.609,4.476-17.05,4.119-23.094
						l14.234,11.424c-0.009,0.162-0.017,0.34-0.017,0.536c-0.009,1.43,0.187,3.439,0.69,5.78c0.366,1.652,1.349,4.11,2.073,6.008
						C346.638,265.929,342.53,272.188,337.295,272.188z"/>
					<path style="fill:#FC916D;" d="M328.94,241.089c0.09-1.56,0.12-2.97,0.05-4.12l3.28,2.63
						C331.39,240.429,330.23,240.979,328.94,241.089z"/>
					<path style="fill:#211F20;" d="M343.893,254.71c-5.321-2.665-9.441-7.653-10.999-13.399c3.048,2.946,6.632,5.423,10.309,7.619
						C343.194,250.36,343.39,252.369,343.893,254.71z"/>
					<path style="fill:#FC916D;" d="M330.98,218.665c3.883-1.879,8.276-2.691,12.574-2.323c4.298,0.368,8.485,2.214,11.993,4.726
						c1.321,7.007,1.847,14.164,1.565,21.289c-0.091,2.312-0.325,4.776-1.763,6.588c-0.989,1.247-2.468,2.046-4.016,2.415
						c-1.548,0.368-3.168,0.331-4.746,0.125c-6.557-0.86-13.646-6.083-17.146-11.694l-0.072-5.978
						c0.096-1.393,0.192-2.785,0.288-4.178L330.98,218.665z"/>
					<path style="fill:#FC916D;" d="M334.042,235.503c0,3.101-2.514,5.614-5.614,5.614c-3.101,0-5.614-2.514-5.614-5.614
						c0-3.101,2.514-5.614,5.614-5.614C331.529,229.889,334.042,232.402,334.042,235.503z"/>
					
						<path style="fill:none;stroke:#231F20;stroke-width:0.4256;stroke-linecap:round;stroke-linejoin:round;stroke-miterlimit:10;" d="
						M349.107,231.332c0.065,1.509,0.471,3.003,1.178,4.337c0.356-0.221,0.92-0.175,1.219,0.119
						c0.299,0.295,0.402,0.754,0.315,1.165c-0.086,0.411-0.344,0.771-0.665,1.041c-0.322,0.269-0.706,0.454-1.097,0.604"/>
					<path style="fill:#231F20;" d="M344.814,232.676c0,0.683-0.408,1.237-0.911,1.237c-0.503,0-0.911-0.554-0.911-1.237
						c0-0.684,0.408-1.238,0.911-1.238C344.405,231.439,344.814,231.993,344.814,232.676z"/>
					<path style="fill:#231F20;" d="M353.568,232.709c0,0.683-0.408,1.238-0.911,1.238c-0.503,0-0.911-0.554-0.911-1.238
						c0-0.683,0.408-1.238,0.911-1.238C353.16,231.472,353.568,232.026,353.568,232.709z"/>
					<path style="fill:#231F20;" d="M343.264,228.345c0.875-0.174,1.773-0.174,2.663-0.244c0.287-0.023,0.605-0.069,0.786-0.292
						c0.139-0.171,0.163-0.404,0.176-0.624c0.018-0.29,0.024-0.595-0.106-0.856c-0.169-0.339-0.546-0.538-0.923-0.58
						c-0.377-0.042-0.755,0.051-1.116,0.167c-1.127,0.365-2.173,0.976-3.044,1.777c-0.349,0.321-0.675,0.68-0.874,1.111
						c-0.063,0.137-0.114,0.285-0.108,0.436c0.003,0.086,0.042,0.296,0.147,0.321c0.105,0.024,0.214-0.144,0.279-0.206
						c0.189-0.182,0.402-0.338,0.628-0.469C342.233,228.618,342.745,228.449,343.264,228.345z"/>
					<path style="fill:#231F20;" d="M354.113,228.949c-0.875-0.174-1.773-0.174-2.662-0.244c-0.287-0.023-0.605-0.069-0.786-0.292
						c-0.139-0.171-0.163-0.404-0.176-0.624c-0.018-0.29-0.024-0.596,0.106-0.856c0.169-0.339,0.546-0.538,0.923-0.58
						c0.377-0.042,0.755,0.05,1.116,0.167c1.127,0.365,2.173,0.976,3.044,1.777c0.349,0.321,0.675,0.68,0.874,1.111
						c0.063,0.137,0.114,0.285,0.108,0.436c-0.003,0.086-0.042,0.296-0.147,0.321c-0.105,0.025-0.214-0.144-0.279-0.206
						c-0.189-0.182-0.402-0.337-0.629-0.469C355.143,229.222,354.632,229.053,354.113,228.949z"/>
				</g>
				<path style="fill:#E0A491;" d="M351.42,222.55c-1.28,0.06-15.04-0.21-15.04-1.06c-0.26,3.79-1.43,7.51-3.37,10.77
					c-1.01-1.43-2.69-2.37-4.58-2.37c-0.34,0-0.66,0.03-0.98,0.09c-1.11-3.25-1.66-6.69-1.61-10.11c0.03-1.71,0.29-3.6,1.61-4.69
					c0.85-0.71,2.07-0.94,3.12-0.6c1.06,0.34,1.91,1.25,2.18,2.32c3.72-3.69,8.88-5.9,14.11-6.05c1.07-0.03,2.25,0.06,3.01,0.81
					c0.77,0.75,0.67,2.34-0.36,2.62c0.9-0.25,1.71-0.73,2.55-1.13c0.84-0.4,1.75-0.74,2.67-0.68c0.93,0.06,1.88,0.6,2.16,1.49
					c0.19,0.6-0.04,1.3-0.49,1.69c1.64-0.39,3.58,0.57,4.1,2.21C362.09,222.93,354.17,222.44,351.42,222.55z"/>
				
					<path style="fill:none;stroke:#231F20;stroke-width:0.4256;stroke-linecap:round;stroke-linejoin:round;stroke-miterlimit:10;" d="
					M341.797,241.098c3.183,1.047,6.367,2.095,9.55,3.142"/>
				<path style="fill:#8C84D9;" d="M369.23,274.64c-7.22,7.16-17.16,11.58-28.14,11.58c-14.6,0-27.37-7.82-34.36-19.51l18.14-6.65
					l12.42,12.13l8.68-11.47l18.35,5.95L369.23,274.64z"/>
			</g>
			<path style="fill:none;stroke:#211F20;stroke-linecap:round;stroke-linejoin:round;stroke-miterlimit:10;" d="M381.09,246.22
				c0,11.12-4.53,21.17-11.86,28.42c-7.22,7.16-17.16,11.58-28.14,11.58c-14.6,0-27.37-7.82-34.36-19.51c-3.58-6-5.64-13-5.64-20.49
				c0-22.09,17.91-40,40-40S381.09,224.13,381.09,246.22z"/>
		</g>
	</g>
	<g>
		<g>
			<g>
				<path style="fill:#DCDCFE;" d="M206.099,63.843h-30.26c-6.6,0-12-5.4-12-12V45.06c0-6.6,5.4-12,12-12h30.26c6.6,0,12,5.4,12,12
					v6.783C218.099,58.443,212.699,63.843,206.099,63.843z"/>
			</g>
			<g>
				<polygon style="fill:#DCDCFE;" points="172.969,72.582 175.839,63.843 184.838,63.843 				"/>
			</g>
			<g>
				<path style="fill:#DCDCFE;" d="M651.404,98.82H587.27c-6.6,0-12-5.4-12-12V59.168c0-6.6,5.4-12,12-12h64.133c6.6,0,12,5.4,12,12
					V86.82C663.404,93.42,658.003,98.82,651.404,98.82z"/>
			</g>
			<g>
				<polygon style="fill:#DCDCFE;" points="587.27,98.82 587.27,115.842 597.569,98.82 				"/>
			</g>
			<g>
				<path style="fill:#DCDCFE;" d="M693.563,296.22h-22.101c-5.006,0-9.102-4.096-9.102-9.102l0,0c0-5.006,4.096-9.102,9.102-9.102
					h22.101c5.006,0,9.102,4.096,9.102,9.102l0,0C702.664,292.124,698.568,296.22,693.563,296.22z"/>
			</g>
			<g>
				<path style="fill:#DCDCFE;" d="M633.982,180.451H622.39c-4.273,0-7.769-3.496-7.769-7.769l0,0c0-4.273,3.496-7.769,7.769-7.769
					h11.593c4.273,0,7.769,3.496,7.769,7.769l0,0C641.751,176.955,638.255,180.451,633.982,180.451z"/>
			</g>
			<path style="fill:#FFFFFF;" d="M355.121,418.886h-14.348c-4.34,0-7.891-3.551-7.891-7.891l0,0c0-4.34,3.551-7.891,7.891-7.891
				h14.348c4.34,0,7.891,3.551,7.891,7.891l0,0C363.012,415.335,359.461,418.886,355.121,418.886z"/>
			<path style="fill:#FFFFFF;" d="M66.404,253.756h-6.261c-4.304,0-7.826-3.522-7.826-7.826l0,0c0-4.304,3.522-7.826,7.826-7.826
				h6.261c4.304,0,7.826,3.522,7.826,7.826l0,0C74.23,250.234,70.708,253.756,66.404,253.756z"/>
		</g>
	</g>
	<g>
		<g>
			<path style="fill:none;stroke:#211F20;stroke-width:0.5;stroke-linecap:round;stroke-linejoin:round;stroke-miterlimit:10;" d="
				M235.316,450.005c-4.864-5.094-8.111-11.807-9.782-18.649c-0.771-3.156-0.919-7.048,1.633-9.057
				c2.419-1.904,6.178-0.971,8.351,1.21c2.173,2.181,3.153,5.247,4.06,8.189c-3.683-7.402-5.123-15.902-4.083-24.104
				c0.375-2.958,1.542-6.399,4.43-7.137c3.056-0.78,5.791,1.993,7.574,4.595c5.158,7.531,8.802,16.094,10.653,25.032
				c-1.693-8.422-0.727-17.359,2.726-25.225c1.174-2.674,3.588-5.654,6.375-4.782c2.193,0.686,2.983,3.333,3.359,5.6
				c1.213,7.326,1.573,14.793,1.069,22.201c1.458-4.62,3.058-9.465,6.638-12.728c3.581-3.263,9.814-4.147,13.051-0.543
				c0.81,0.902,1.374,2.013,1.69,3.183c0.776,2.874,0.05,5.988-1.352,8.614c-1.403,2.626-3.437,4.85-5.449,7.045
				c3.116-4.003,7.146-7.291,11.692-9.541c2.225-1.101,4.902-1.948,7.131-0.856c2.584,1.266,3.418,4.737,2.61,7.499
				c-0.807,2.762-2.833,4.973-4.797,7.077c1.598-1.552,3.242-3.135,5.278-4.039c2.036-0.904,4.578-1.004,6.365,0.326
				c2.146,1.598,2.547,4.786,1.655,7.308c-0.893,2.522-3.896,6.525-5.746,8.457L235.316,450.005z"/>
			<path style="fill:none;stroke:#211F20;stroke-width:0.5;stroke-linecap:round;stroke-linejoin:round;stroke-miterlimit:10;" d="
				M40.577,450.005c-4.357-3.772-7.644-9.573-8.474-15.276c-0.231-1.583-0.218-3.418,0.953-4.507c1.267-1.179,3.4-0.89,4.768,0.17
				c1.368,1.061,2.154,2.686,2.888,4.254c0.734,1.568,1.509,3.196,2.865,4.272c-4.207-9.122-5.34-19.63-3.175-29.44
				c0.281-1.274,0.635-2.576,1.441-3.601c0.806-1.026,2.172-1.714,3.429-1.363c1.254,0.351,2.031,1.573,2.661,2.713
				c5.032,9.11,8.313,19.183,9.613,29.509c-0.779-1.927-1.567-3.887-1.762-5.957c-0.195-2.069,0.283-4.3,1.74-5.783
				c1.457-1.483,4.015-1.945,5.661-0.676c0.57,0.44,0.995,1.041,1.366,1.658c2.222,3.687,2.808,8.321,1.573,12.445
				c0.23-2.049,0.492-4.184,1.634-5.901c1.142-1.716,3.457-2.842,5.321-1.962c1.877,0.887,2.459,3.259,2.571,5.332
				c0.262,4.876-1,9.845-3.375,14.111H40.577z"/>
			<path style="fill:none;stroke:#211F20;stroke-width:0.5;stroke-linecap:round;stroke-linejoin:round;stroke-miterlimit:10;" d="
				M396.469,450.005c-2.068-2.305-4.957-5.057-5.564-8.094c-0.607-3.037,1.015-6.749,4.069-7.26c2.149-0.359,4.298,0.973,5.545,2.76
				c1.247,1.787,1.776,3.962,2.28,6.082c-1.396-3.785-1.385-8.071,0.031-11.848c0.805-2.147,2.373-4.343,4.655-4.565
				c2.253-0.22,4.274,1.681,4.979,3.832c0.705,2.151,0.41,4.486,0.108,6.729c1.371-2.967,2.867-6.085,5.585-7.902
				c2.718-1.816,7.04-1.645,8.646,1.202c1.509,2.675-0.028,5.979-1.547,8.648c1.44-2.062,3.068-4.094,5.28-5.291
				c2.212-1.197,5.141-1.377,7.128,0.165c1.874,1.454,2.49,4.096,2.133,6.441c-0.357,2.345-2.855,6.736-4.003,8.812L396.469,450.005
				z"/>
			<path style="fill:none;stroke:#211F20;stroke-width:0.5;stroke-linecap:round;stroke-linejoin:round;stroke-miterlimit:10;" d="
				M558.077,450.005c-2.832-3.43-5.438-7.497-6.406-11.839c-0.968-4.342,0.703-9.621,4.838-11.259
				c2.878-1.141,6.242-0.257,8.786,1.506c2.545,1.763,4.434,4.297,6.276,6.785c-6.124-11.867-6.968-26.34-2.266-38.839
				c1.703-4.528,5.088-9.405,9.923-9.245c2.867,0.095,5.407,2.068,6.945,4.49c1.538,2.422,2.248,5.263,2.935,8.049
				c2.372,9.617,4.743,19.233,7.115,28.85c-1.504-11.284,0.466-23.008,5.578-33.18c1.808-3.599,5.185-7.514,9.062-6.421
				c3.038,0.856,4.4,4.332,5.151,7.398c2.216,9.044,2.892,18.464,1.992,27.732c0.88-14.955,6.563-29.59,16.007-41.219
				c1.67-2.056,3.514-4.067,5.886-5.247s5.39-1.38,7.577,0.114c2.906,1.985,3.378,6.024,3.411,9.543
				c0.106,11.551-1.58,23.116-4.981,34.155c3.451-9.89,9.881-18.718,18.236-25.037c2.677-2.025,6.258-3.849,9.241-2.31
				c2.902,1.497,3.555,5.318,3.577,8.584c0.068,9.917-2.505,19.841-7.384,28.475c3.01-3.694,6.173-7.51,10.497-9.512
				c4.324-2.003,10.163-1.596,13.025,2.214c2.706,3.602,1.839,8.827-0.348,12.766c-2.186,3.939-5.612,9.563-7.891,13.448H558.077z"
				/>
		</g>
		
			<line style="fill:none;stroke:#211F20;stroke-width:0.5;stroke-linecap:round;stroke-linejoin:round;stroke-miterlimit:10;" x1="26.044" y1="450.005" x2="726.043" y2="450.005"/>
	</g>
	<g>
		<g>
			<path style="fill:none;stroke:#211F20;stroke-width:5;stroke-linecap:round;stroke-linejoin:round;stroke-miterlimit:10;" d="
				M500.62,107.2c0,23.6-16.4,43.34-38.42,48.5h-0.01c-3.66,0.87-7.48,1.32-11.4,1.32c-12.23,0-23.45-4.42-32.12-11.74
				c-3.19-2.69-6.04-5.78-8.47-9.19c-2.56-3.58-4.66-7.53-6.2-11.74c-0.96-2.61-1.7-5.33-2.21-8.13c-0.01-0.04-0.02-0.09-0.02-0.13
				c-0.53-2.88-0.8-5.86-0.8-8.89c0-0.92,0.02-1.83,0.07-2.73c0-0.04,0-0.08,0.01-0.12c1.48-26.19,23.19-46.98,49.74-46.98
				C478.31,57.37,500.62,79.68,500.62,107.2z"/>
			
				<line style="fill:none;stroke:#211F20;stroke-width:5;stroke-linecap:round;stroke-linejoin:round;stroke-miterlimit:10;" x1="450.795" y1="157.024" x2="450.795" y2="268.886"/>
		</g>
		<g>
			<polygon style="fill:#FC916D;" points="519.47,418.052 517.558,403.103 503.365,403.387 509.023,420.614 515.419,421.168 			"/>
			<polygon style="fill:#231F20;" points="518.233,408.383 505.006,408.383 505.894,411.086 			"/>
			<g>
				<path style="fill:#231F20;" d="M523.128,429.203c2.362,6.629,3.099,13.831,2.131,20.802c-2.205,0.003-4.036-0.193-5.828-1.111
					c-1.792-0.918-3.754-1.919-5.723-1.496c-2.002,0.43-3.769,2.592-5.727,2.592c-2.763,0-4.863-2.884-7.622-2.737
					c-2.334,0.125-4.202,2.752-6.503,2.752c-3.096,0-5.71-3.543-8.674-2.649c-0.965,0.291-1.722,1.018-2.532,1.618
					c-0.809,0.6-1.855,1.162-2.831,0.91c-1.266-0.327-2.09-1.901-3.394-1.796c-1.33,0.107-2.13,1.918-3.585,1.918
					c-1.001,0-1.193-1.825-1.203-2.826c-0.039-3.892,0.859-7.791,2.598-11.274c0.793-1.587,1.904-3.204,3.607-3.702
					c10.878-3.181,22.566,2.986,33.859,2.032c2.089-0.177,4.199-0.412,6.167-1.136C519.838,432.375,522.096,431.029,523.128,429.203
					z"/>
				<path style="fill:#FFFFFF;" d="M512.569,420.333c-2.142-0.209-4.02-2.021-4.306-4.154c-0.104-0.773-0.019-1.569-0.196-2.328
					c-0.177-0.76-0.727-1.522-1.504-1.587c-1.085-0.09-1.758,1.108-2.24,2.084c-1.922,3.9-5.273,7.075-9.27,8.786
					c-2.271,0.972-4.708,1.476-7.099,2.1c-2.39,0.624-4.791,1.393-6.812,2.814c-2.021,1.421-3.636,3.591-3.868,6.051
					c-0.257,2.729,1.269,5.443,3.513,7.019c2.243,1.576,5.096,2.113,7.832,1.934c2.736-0.179,5.384-1.024,7.941-2.011
					c2.321-0.896,4.726-1.933,7.198-1.651c1.947,0.222,3.704,1.244,5.594,1.761c4.233,1.157,9.094-0.516,11.718-4.033
					c2.02-2.707,2.692-6.232,2.523-9.606c-0.169-3.374-1.109-6.655-2.043-9.901c-0.303-1.053-0.697-2.174-1.858-2.506
					c-0.612-0.175-1.212-0.126-1.618,0.395c-0.893,1.147-0.77,2.681-1.973,3.705C515.145,420.02,513.822,420.455,512.569,420.333z"
					/>
			</g>
			<path style="fill:#4D4D80;" d="M515.365,226.183c-20.19,27.131-36.172,57.221-47.807,88.976
				c-1.977,5.396,0.854,10.337,2.695,15.781c8.907,26.324,19.182,52.185,30.771,77.443h20.075
				c-2.103-15.346-5.099-30.184-7.202-45.53c-1.157-8.44-2.341-16.985-5.567-24.869c-2.44-5.965-6.032-11.456-10.518-16.084
				c7.073-10.339,16.397-18.37,26.003-26.41c7.214-6.039,15.041-11.329,22.092-17.558c7.051-6.229,13.415-13.584,16.69-22.403
				c3.276-8.82,3.061-19.302-2.258-27.063C545.836,225.028,530.147,224.266,515.365,226.183z"/>
		</g>
		<g>
			<polygon style="fill:#FC916D;" points="656.215,418.351 654.321,403.542 640.261,403.823 645.866,420.888 652.202,421.437 			"/>
			<polygon style="fill:#231F20;" points="654.94,408.383 641.759,408.383 642.859,411.734 			"/>
			<path style="fill:#4D4D80;" d="M638.882,408.383h20.297c-5.187-17.46-10.375-35.748-15.562-53.208
				c-1.789-6.022-3.608-12.114-6.806-17.521c-6.033-10.201-16.684-17.04-26.635-23.476c1.515-5.115,0.403-10.656-1.464-15.654
				c-1.866-4.997-4.471-9.71-6.075-14.798c-2.633-8.353-2.456-17.32-4.208-25.902c-2.667-13.061-10.007-25.389-20.289-33.873
				c-5.779-0.141-11.511-0.263-17.167,0.93c-5.656,1.194-11.195,3.859-14.765,8.405c-3.903,4.971-5.04,11.693-4.297,17.969
				c0.743,6.276,3.193,12.215,5.862,17.944c10.994,23.6,26.805,40.34,40.044,57.035
				C593.328,335.821,631.382,396.212,638.882,408.383z"/>
			<g>
				<path style="fill:#231F20;" d="M659.839,429.398c2.34,6.568,3.07,13.702,2.111,20.607c-2.184,0.003-3.998-0.191-5.773-1.101
					c-1.775-0.91-3.719-1.901-5.669-1.482c-1.984,0.426-3.734,2.568-5.673,2.568c-2.737,0-4.817-2.857-7.55-2.711
					c-2.312,0.124-4.163,2.727-6.442,2.727c-3.067,0-5.657-3.51-8.593-2.624c-0.956,0.288-1.706,1.008-2.508,1.603
					c-0.802,0.594-1.838,1.151-2.804,0.901c-1.254-0.324-2.071-1.883-3.362-1.78c-1.318,0.106-2.11,1.9-3.551,1.9
					c-0.991,0-1.182-1.808-1.192-2.799c-0.039-3.856,0.851-7.718,2.574-11.169c0.785-1.572,1.886-3.174,3.573-3.667
					c10.776-3.151,22.355,2.958,33.543,2.013c2.07-0.175,4.16-0.408,6.109-1.126C656.58,432.539,658.817,431.207,659.839,429.398z"
					/>
				<path style="fill:#FFFFFF;" d="M649.379,420.61c-2.122-0.207-3.983-2.002-4.266-4.115c-0.103-0.766-0.019-1.554-0.194-2.307
					c-0.175-0.753-0.72-1.508-1.49-1.572c-1.075-0.089-1.742,1.098-2.219,2.065c-1.904,3.863-5.224,7.009-9.183,8.704
					c-2.25,0.963-4.664,1.462-7.032,2.08c-2.368,0.618-4.746,1.38-6.749,2.787c-2.002,1.407-3.602,3.558-3.832,5.994
					c-0.255,2.704,1.258,5.392,3.48,6.953c2.222,1.561,5.048,2.093,7.758,1.915c2.71-0.177,5.333-1.015,7.867-1.992
					c2.3-0.887,4.682-1.915,7.131-1.636c1.929,0.22,3.67,1.232,5.542,1.744c4.193,1.147,9.009-0.511,11.609-3.995
					c2.001-2.682,2.666-6.174,2.499-9.516c-0.167-3.342-1.098-6.593-2.024-9.808c-0.3-1.043-0.69-2.154-1.841-2.482
					c-0.606-0.173-1.2-0.125-1.603,0.392c-0.885,1.136-0.763,2.656-1.954,3.67C651.931,420.3,650.62,420.731,649.379,420.61z"/>
			</g>
		</g>
		<path style="fill:#FC916D;" d="M450.509,181.489c-2.363-1.557-4.183-3.923-5.08-6.607c-0.303-0.907-0.505-1.864-0.428-2.818
			c0.077-0.954,1.505-4.579,3.266-4.059c0.904,1.231,3.138,3.278,4.647,3.038c-0.619-0.75-0.766-3.114,0.424-3.037
			c2.348,1.031,2.824,4.405,1.983,6.557c9.238,2.264,18.353,5.03,27.291,8.283c3.014,1.097,5.977,2.41,7.872,4.998
			c2.328-3.368,5.71-5.839,9.065-8.185c4.857-3.395,9.798-6.669,14.819-9.817c3.545,5.734,6.472,11.926,8.594,18.325
			c-4.967,4.933-9.929,10.208-15.983,13.723c-6.054,3.514-13.338,5.447-20.135,3.769c-5.303-1.309-9.835-4.653-14.211-7.921
			C465.449,192.373,457.997,186.422,450.509,181.489z"/>
		<path style="fill:#FC916D;" d="M585.2,201.93c-0.5,2.42-2.37,4.39-4.54,5.59c-0.86,0.48-1.76,0.85-2.69,1.16
			c-0.79,0.27-1.59,0.49-2.4,0.69h-0.02c-0.64,0.16-1.29,0.31-1.93,0.45c-2.62-8.67-5.02-17.46-6.17-26.44
			c2.99-1.54,6.37-3.11,9.35-4.65c2.95,5.38,5.45,11.01,7.46,16.8C584.97,197.6,585.64,199.79,585.2,201.93z"/>
		<g>
			<g>
				<path style="fill:#FC916D;" d="M539.639,164.914c5.235,0,9.975-5.62,12.427-12.124c-2.375-3.61-4.476-17.05-4.119-23.094
					l-14.234,11.424c0.008,0.162,0.017,0.34,0.017,0.536c0.009,1.43-0.187,3.439-0.69,5.78c-0.366,1.652-1.349,4.11-2.073,6.008
					C530.296,158.655,534.403,164.914,539.639,164.914z"/>
				<path style="fill:#211F20;" d="M533.041,147.436c5.321-2.665,9.441-7.653,10.999-13.399c-3.048,2.946-6.632,5.423-10.309,7.619
					C533.739,143.086,533.544,145.095,533.041,147.436z"/>
				<path style="fill:#FC916D;" d="M545.953,111.391c-3.883-1.879-8.276-2.691-12.574-2.323c-4.298,0.368-8.485,2.214-11.993,4.726
					c-1.32,7.007-1.847,14.164-1.565,21.289c0.091,2.312,0.325,4.776,1.763,6.588c0.989,1.247,2.468,2.046,4.016,2.415
					c1.548,0.368,3.168,0.331,4.746,0.125c6.557-0.86,13.646-6.083,17.146-11.694l0.072-5.978c-0.096-1.392-0.192-2.785-0.288-4.177
					L545.953,111.391z"/>
				<path style="fill:#FC916D;" d="M542.891,128.229c0,3.101,2.514,5.614,5.614,5.614c3.101,0,5.614-2.514,5.614-5.614
					c0-3.101-2.514-5.614-5.614-5.614C545.405,122.615,542.891,125.128,542.891,128.229z"/>
				
					<path style="fill:none;stroke:#231F20;stroke-width:0.4256;stroke-linecap:round;stroke-linejoin:round;stroke-miterlimit:10;" d="
					M527.826,124.058c-0.065,1.509-0.471,3.003-1.178,4.337c-0.356-0.221-0.92-0.175-1.219,0.119
					c-0.299,0.294-0.402,0.754-0.315,1.165c0.086,0.411,0.344,0.771,0.665,1.041c0.322,0.269,0.706,0.454,1.097,0.604"/>
				<path style="fill:#231F20;" d="M532.12,125.402c0,0.684,0.408,1.238,0.911,1.238c0.503,0,0.911-0.554,0.911-1.238
					c0-0.683-0.408-1.238-0.911-1.238C532.528,124.165,532.12,124.719,532.12,125.402z"/>
				<path style="fill:#231F20;" d="M523.366,125.435c0,0.684,0.408,1.238,0.911,1.238c0.503,0,0.911-0.554,0.911-1.238
					c0-0.683-0.408-1.237-0.911-1.237C523.774,124.198,523.366,124.752,523.366,125.435z"/>
				<path style="fill:#231F20;" d="M533.67,122.017c-0.875-0.174-1.773-0.174-2.662-0.244c-0.287-0.023-0.605-0.069-0.786-0.292
					c-0.139-0.171-0.163-0.404-0.176-0.623c-0.018-0.29-0.024-0.596,0.106-0.856c0.169-0.339,0.546-0.538,0.923-0.58
					c0.377-0.042,0.755,0.05,1.116,0.167c1.127,0.365,2.173,0.976,3.044,1.778c0.349,0.321,0.675,0.68,0.874,1.111
					c0.063,0.137,0.114,0.285,0.108,0.436c-0.003,0.086-0.042,0.296-0.147,0.321c-0.106,0.025-0.214-0.144-0.279-0.206
					c-0.189-0.182-0.402-0.337-0.628-0.469C534.701,122.29,534.189,122.12,533.67,122.017z"/>
				<path style="fill:#231F20;" d="M523.427,121.92c0.875-0.174,1.773-0.174,2.663-0.244c0.287-0.023,0.605-0.069,0.786-0.292
					c0.139-0.171,0.163-0.404,0.176-0.624c0.018-0.29,0.024-0.596-0.106-0.856c-0.169-0.339-0.546-0.538-0.923-0.58
					s-0.755,0.05-1.116,0.167c-1.127,0.365-2.173,0.976-3.044,1.777c-0.349,0.321-0.675,0.68-0.874,1.111
					c-0.063,0.137-0.114,0.285-0.108,0.436c0.003,0.086,0.042,0.296,0.147,0.321c0.105,0.025,0.214-0.144,0.279-0.206
					c0.189-0.182,0.402-0.337,0.629-0.469C522.396,122.193,522.908,122.023,523.427,121.92z"/>
				<path style="fill:#211F20;" d="M532.442,131.928c-1.197,1.376-2.99,2.214-4.813,2.249c0.205,0.65,0.796,1.221,1.437,1.453
					c0.641,0.231,1.388,0.146,1.961-0.223c0.534-0.344,0.898-0.906,1.119-1.502C532.367,133.31,532.353,132.557,532.442,131.928z"/>
			</g>
			<g>
				<path style="fill:none;stroke:#FFFFFF;stroke-width:0.5;stroke-linecap:round;stroke-linejoin:round;stroke-miterlimit:10;" d="
					M518.311,123.235h8.751c0,0-0.2,4.842-4.842,4.842S518.311,123.235,518.311,123.235z"/>
				<path style="fill:none;stroke:#FFFFFF;stroke-width:0.5;stroke-linecap:round;stroke-linejoin:round;stroke-miterlimit:10;" d="
					M529.302,123.235h8.751c0,0-0.2,4.842-4.842,4.842C528.568,128.077,529.302,123.235,529.302,123.235z"/>
				
					<polyline style="fill:none;stroke:#FFFFFF;stroke-width:0.5;stroke-linecap:round;stroke-linejoin:round;stroke-miterlimit:10;" points="
					527.062,123.235 529.302,123.235 538.053,123.235 545.42,123.759 				"/>
			</g>
			<path style="fill:#4F2034;" d="M554.58,123.32c-0.31-1.63-1.41-3.02-2.78-3.5c0.66,1.46,0.98,3.11,0.96,4.75
				c-1.03-1.2-2.55-1.96-4.25-1.96c-1.22,0-2.35,0.39-3.27,1.05c-0.56-2.3-0.8-4.71-0.67-7.1c-1.74,1.52-4.57,2.09-6.73,1.86
				c0.17-0.86,0.34-1.72,0.52-2.58c-2.59,1.74-5.57,2.68-8.55,2.7c-0.17-1.05-0.33-2.1-0.5-3.15c-1.74,1.13-3.49,2.26-5.23,3.39
				c-0.51-1.21-1.03-2.42-1.54-3.63l-3.36,4.14c-0.5-1.47-0.5-3.16-0.01-4.64c-0.83,0.8-1.65,1.6-2.47,2.39
				c0.38-3.86,2.42-7.45,5.32-9.35c-0.93-0.52-2.04-0.54-2.98-0.05c1.79-2.69,4.62-4.38,7.52-4.49c-1.31-1.78-3.09-3.06-5.03-3.62
				c4.44-1.39,9.3-0.81,13.4,1.6c-0.33-1.07-0.67-2.14-1-3.21c3.91,0.42,7.67,2.59,10.34,5.98c0.08-0.9,0.16-1.81,0.24-2.71
				c1.69,1.31,2.98,3.61,3.3,5.95c1.89-0.12,3.81,0.8,5.09,2.43c-0.59,0.07-1.17,0.13-1.75,0.2
				C553.8,113.48,555.07,118.51,554.58,123.32z"/>
		</g>
		<path style="fill:#211F20;" d="M577.97,208.68c-0.79,0.27-1.59,0.49-2.4,0.69h-0.02l-2.57-9.61L577.97,208.68z"/>
		<path style="fill:#F56438;" d="M578.14,223.951c-3.211-21.432-8.973-42.48-17.126-62.559c-1.598-3.935-3.519-8.102-7.211-10.201
			c-4.347-2.472-9.805-1.335-14.538,0.278c-10.103,3.441-19.562,8.764-27.748,15.613c3.657,7.844,7.297,15.556,10.954,23.4
			c-4.092,11.414-6.378,23.598-7.105,35.702C535.032,235.104,559.104,234.149,578.14,223.951z"/>
		<path style="fill:#F56438;" d="M553.802,151.19c0,0,19.358,9.817,25.187,28.078l-11.96,6.431L553.802,151.19z"/>
		<g>
			<path style="fill:none;stroke:#211F20;stroke-width:0.5;stroke-linecap:round;stroke-linejoin:round;stroke-miterlimit:10;" d="
				M521.109,228.577c-21.478,26.774-37.09,58.229-45.428,91.526c-1.838,7.34,2.872,14.304,5.529,21.389
				c8.113,21.635,16.226,43.271,24.339,64.906"/>
			
				<line style="fill:none;stroke:#211F20;stroke-width:0.5;stroke-linecap:round;stroke-linejoin:round;stroke-miterlimit:10;" x1="499.424" y1="402.89" x2="519.374" y2="402.89"/>
			
				<line style="fill:none;stroke:#211F20;stroke-width:0.5;stroke-linecap:round;stroke-linejoin:round;stroke-miterlimit:10;" x1="636.785" y1="402.89" x2="655.851" y2="402.89"/>
			<path style="fill:none;stroke:#211F20;stroke-width:0.5;stroke-linecap:round;stroke-linejoin:round;stroke-miterlimit:10;" d="
				M553.421,271.559c10.673,18.941,23.974,36.398,39.403,51.716c12.306,12.218,17.61,29.595,26.67,44.382
				c7.75,12.649,15.499,25.297,23.249,37.946"/>
			<path style="fill:none;stroke:#211F20;stroke-width:0.5;stroke-linecap:round;stroke-linejoin:round;stroke-miterlimit:10;" d="
				M610.123,314.261c-1.726,2.011-4.115,3.444-6.701,4.021"/>
			<path style="fill:none;stroke:#211F20;stroke-width:0.5;stroke-linecap:round;stroke-linejoin:round;stroke-miterlimit:10;" d="
				M498.341,321.801c-2.599,2.759-6.844,3.831-10.441,2.637"/>
			<path style="fill:none;stroke:#211F20;stroke-width:0.5;stroke-linecap:round;stroke-linejoin:round;stroke-miterlimit:10;" d="
				M582.243,229.174c-10.559,6.141-22.547,9.809-34.735,10.627c-12.188,0.818-24.558-1.215-35.844-5.89"/>
			<path style="fill:none;stroke:#211F20;stroke-width:0.5;stroke-linecap:round;stroke-linejoin:round;stroke-miterlimit:10;" d="
				M503.439,253.537c-1.178-2.429-0.95-5.35,0.005-7.875c0.955-2.525,2.57-4.737,4.166-6.913c2.913-3.973,5.825-7.945,8.738-11.918"
				/>
			<path style="fill:none;stroke:#211F20;stroke-width:0.5;stroke-linecap:round;stroke-linejoin:round;stroke-miterlimit:10;" d="
				M564.102,229.52c4.252,4.533,5.427,11.348,4.237,17.448s-4.464,11.597-8.179,16.579c-2.829,3.793-5.962,7.388-9.612,10.4"/>
			<path style="fill:none;stroke:#211F20;stroke-width:0.5;stroke-linecap:round;stroke-linejoin:round;stroke-miterlimit:10;" d="
				M495.854,408.955c-0.555-0.863-1.191-1.723-2.094-2.21c-0.903-0.488-2.137-0.5-2.863,0.225c-0.772,0.771-0.716,2.027-0.494,3.095
				c0.843,4.05,5.92,8.204,9.412,10.423c-1.73-4.251-7.871-8.185-12.193-9.732c-0.594-0.212-1.216-0.393-1.846-0.351
				c-0.629,0.042-1.273,0.343-1.579,0.894c-0.307,0.553-0.221,1.258,0.072,1.818c0.293,0.56,0.766,1.003,1.243,1.417
				c2.824,2.449,6.151,4.313,9.707,5.464c0.843,0.273,4.059,1.618,4.595,0.49c0.299-0.629-0.217-2.085-0.356-2.74
				c-0.204-0.962-0.461-1.913-0.771-2.847C497.996,412.811,497.044,410.807,495.854,408.955z"/>
			<path style="fill:none;stroke:#211F20;stroke-width:0.5;stroke-linecap:round;stroke-linejoin:round;stroke-miterlimit:10;" d="
				M633.593,408.159c-0.555-0.863-1.191-1.723-2.094-2.21c-0.903-0.488-2.137-0.5-2.863,0.225c-0.772,0.77-0.716,2.027-0.494,3.095
				c0.843,4.05,5.92,8.205,9.412,10.423c-1.73-4.251-7.871-8.186-12.192-9.732c-0.594-0.213-1.216-0.393-1.846-0.351
				c-0.629,0.042-1.273,0.342-1.579,0.894c-0.307,0.553-0.221,1.258,0.072,1.818c0.293,0.56,0.766,1.003,1.243,1.417
				c2.824,2.449,6.151,4.313,9.707,5.464c0.844,0.273,4.059,1.617,4.595,0.49c0.299-0.629-0.217-2.085-0.356-2.74
				c-0.204-0.962-0.461-1.913-0.771-2.847C635.735,412.016,634.783,410.012,633.593,408.159z"/>
			<path style="fill:none;stroke:#211F20;stroke-width:0.5;stroke-linecap:round;stroke-linejoin:round;stroke-miterlimit:10;" d="
				M552.718,150.871c8.164,9.525,14.033,21.005,16.973,33.201"/>
			<path style="fill:none;stroke:#211F20;stroke-width:0.5;stroke-linecap:round;stroke-linejoin:round;stroke-miterlimit:10;" d="
				M549.62,155.771c1.127,7.218,0.73,15.008-3.087,21.237c-2.433,3.969-6.11,7.057-10.12,9.423
				c-4.01,2.366-8.372,4.062-12.711,5.747"/>
			<path style="fill:none;stroke:#211F20;stroke-width:0.5;stroke-linecap:round;stroke-linejoin:round;stroke-miterlimit:10;" d="
				M517.03,163.302c5.282,8.135,9.686,16.84,13.109,25.915"/>
			<path style="fill:none;stroke:#211F20;stroke-width:0.5;stroke-linecap:round;stroke-linejoin:round;stroke-miterlimit:10;" d="
				M490.664,187.815c-0.693,1.369-0.945,2.958-0.708,4.474"/>
		</g>
	</g>
	<g>
		<g>
			<polygon style="fill:#FC916D;" points="156.742,412.821 156.742,429.163 162.975,431.713 168.075,428.88 170.222,413.782 			"/>
			<path style="fill:#F56438;" d="M153.815,414.687h20.152c0,0,26.413-82.184,28.761-98.032
				c2.348-15.848-32.97-106.727-32.97-106.727c-11.154,2.533-22.362,5.545-33.517,8.078c-3.114,18.363,0.526,37.485,8.212,54.45
				c7.686,16.965,19.211,31.95,32.006,45.484c-6.845,7.23-12.32,16.013-15.429,25.471c-3.454,10.509-3.963,21.723-4.442,32.774
				C156.035,388.935,154.368,401.939,153.815,414.687z"/>
			<path style="fill:#211F20;" d="M197.418,437.286c0,0,1.879,6.496,0.859,8.706c-1.846,4-7.738,4.086-12.129,3.734
				c-4.391-0.352-8.705-1.621-13.11-1.552c-3.32,0.052-6.574,0.864-9.852,1.39c-3.278,0.526-6.712,0.756-9.854-0.319
				c-1.325-0.453-2.606-1.163-3.462-2.27c-1.701-2.2-1.334-5.302-0.885-8.046c0.154-0.938,0.372-1.981,1.161-2.512
				C165.866,437.708,181.667,438.103,197.418,437.286z"/>
			<path style="fill:#FFFFFF;" d="M165.832,428.755c-2.163,1.169-5.134,0.529-6.624-1.427c-0.944-1.24-1.509-3.037-3.023-3.407
				c-0.921-0.225-1.902,0.218-2.568,0.892c-0.666,0.674-1.08,1.552-1.48,2.411c-0.854,1.831-1.715,3.684-2.121,5.663
				c-0.406,1.979-0.321,4.128,0.647,5.902c1.318,2.416,4.085,3.765,6.821,4.059c2.736,0.294,5.482-0.312,8.156-0.962
				c2.674-0.65,5.381-1.352,8.131-1.254c5.488,0.196,10.615,3.557,16.09,3.133c1.809-0.14,3.613-0.718,5.036-1.842
				c1.424-1.124,2.432-2.825,2.521-4.637c0.155-3.155-2.446-5.876-5.362-7.091c-2.917-1.214-6.153-1.316-9.277-1.787
				c-3.124-0.471-6.397-1.458-8.396-3.904c-1.107-1.354-2.652-4.317-4.902-3.114c-1.387,0.742-0.831,3.415-1.333,4.683
				C167.706,427.193,166.898,428.179,165.832,428.755z"/>
			<polygon style="fill:#211F20;" points="156.742,414.687 170.094,414.687 156.742,417.843 			"/>
		</g>
		<g>
			<polygon style="fill:#FC916D;" points="102.502,426.778 100.664,413.782 114.079,414.687 112.681,428.028 			"/>
			<path style="fill:#F56438;" d="M118.402,414.687H96.167c-2.672-33.311-4.075-66.807-2.312-100.178
				c1.795-33.98,1.483-66.513,5.833-101.97c12.553-0.357,27.202,0.639,39.649,2.313c2.253,34.629,1.565,74.804-19.55,101.727
				c4.197,3.947,6.591,9.5,7.894,15.112c1.303,5.612,1.353,11.444,0.972,17.193C127.191,370.888,121.013,391.846,118.402,414.687z"
				/>
			<path style="fill:#FFFFFF;" d="M96.892,439.039c1.473-3.804,2.945-7.608,4.418-11.412c-0.832-1.869,0.34-4.144,2.103-5.181
				c1.763-1.037,4.068-0.865,5.87,0.102c1.933,1.037,3.373,2.95,3.836,5.094c0.909,4.204,4.837,7.331,5.715,11.542
				C111.553,439.653,104.16,439.694,96.892,439.039z"/>
			<path style="fill:#211F20;" d="M96.826,438.433c-1.407,3.428-1.254,7.836,0.066,11.299c7.878,0.237,14.564,0.312,22.327,0.255
				c1.225-3.475,1.694-8.126-0.232-11.267C111.602,438.043,104.216,437.795,96.826,438.433z"/>
			<polygon style="fill:#211F20;" points="100.792,414.687 114.079,414.687 101.296,418.252 			"/>
		</g>
		<path style="fill:#FFFFFF;" d="M106.959,139.595c-9.016,13.084-18.22,26.392-22.796,41.608c-1.428,0.475-2.626,1.553-3.132,2.97
			c-0.506,1.418-0.323,3.064,0.482,4.335c-0.738,0.152-1.317,0.788-1.641,1.467c-0.325,0.679-0.409,1.449-0.413,2.202
			c-0.009,1.975,0.516,3.95,1.504,5.66c4.3-1.489,8.806-2.998,12.791-5.196c3.985-2.198,7.658-5.12,10.142-8.932
			c2.512-3.857,3.691-8.426,4.449-12.966C110.059,160.468,109.175,149.774,106.959,139.595z"/>
		<path style="fill:#FFFFFF;" d="M158.507,131.617c9.102,8.65,17.086,18.532,23.196,29.502c1.193-0.158,2.645,0.299,3.359,1.267
			c0.715,0.968,0.856,2.33,0.355,3.424c1.456,0.329,2.78,1.806,3.077,3.269c0.216,1.062-0.109,2.311-1.042,2.862
			c-8.42-0.071-16.555-1.319-24.05-5.155C162.561,155.416,160.71,142.803,158.507,131.617z"/>
		<path style="fill:#FFFFFF;" d="M169.758,209.928c-8.9,5.48-20.54,8.22-33.16,8.8c-11.93,0.56-25.9-1.57-36.91-6.19
			c2.32-24.33,4.95-48.62,7.27-72.94c3.76-1.85,7.9-3.31,12.09-4.27c1.75-0.41,3.52-0.73,5.26-0.95l13.52,12.12l6.69-13.78
			c1.47,0,2.92-0.14,4.36-0.32c3.21-0.39,6.37-1,9.63-0.78C163.638,157.438,167.588,183.688,169.758,209.928z"/>
		<path style="fill:#211F20;" d="M136.011,153.579c1.609-0.303,2.94-0.285,4.549-0.587c7.237,17.435,11.294,35.811,11.051,54.687
			c-2.426,2.737-4.469,4.614-7.438,7.172c-2.814-1.076-6.805-3.055-9.319-4.89C136.512,191.093,137.421,172.467,136.011,153.579z"/>
		<path style="fill:#CB775E;" d="M187.488,171.995c-0.406,3.11-0.973,6.24-2.27,9.096c-1.296,2.856-3.396,5.445-6.223,6.803
			c-3.322,1.596-7.201,1.338-10.869,0.967c-17.424-1.763-34.667-5.981-51.372-11.238c2.448-4.965,7.401-7.426,12.624-9.257
			c5.223-1.831,10.841-2.191,16.376-2.254C159.702,165.953,173.948,168.638,187.488,171.995z"/>
		<path style="fill:#CB775E;" d="M147.46,183.42c-0.25,0.13-0.49,0.26-0.74,0.4c-1.9,1.01-3.78,2.11-5.66,3.22
			c-2.29,1.35-4.57,2.7-6.88,3.91c-9.33,4.89-18.66,9.78-28.22,14.2c-3.28,1.51-6.63,2.98-10.2,3.57
			c-3.56,0.59-7.41,0.22-10.44-1.74c-3.04-1.96-6.09-7.18-4.21-10.27c3.63-5.92,10.06-9.49,16.4-12.33
			c12.82-5.73,26.5-9.54,40.44-11.24C141.66,175.24,145.38,179.69,147.46,183.42z"/>
		<path style="fill:#211F20;" d="M144.48,185.05c-1.14,0.65-2.28,1.32-3.42,1.99c-2.4-1.43-7.21-3.69-10.96-5.5
			C134.86,182.84,139.66,184.02,144.48,185.05z"/>
		<path style="fill:#CB775E;" d="M166.906,168.319c-2.708-3.279-6.802-5.373-11.045-5.651c-4.243-0.278-8.575,1.265-11.687,4.163
			C151.483,168.401,159.443,168.785,166.906,168.319z"/>
		<path style="fill:#211F20;" d="M132.753,152.19c1.757,1.748,3.99,3.012,6.393,3.619c1.912-0.99,3.463-2.618,4.175-4.651
			l-5.493-4.66L132.753,152.19z"/>
		<g>
			<g>
				<path style="fill:#CB775E;" d="M136.733,146.499c-5.235,0-9.976-5.62-12.427-12.124c2.375-3.609,4.476-17.05,4.119-23.094
					l14.234,11.424c-0.008,0.162-0.017,0.34-0.017,0.536c-0.008,1.43,0.187,3.439,0.69,5.78c0.366,1.652,1.349,4.11,2.073,6.008
					C146.076,140.24,141.969,146.499,136.733,146.499z"/>
				<path style="fill:#211F20;" d="M143.331,129.022c-5.321-2.665-9.441-7.653-10.999-13.399c3.048,2.946,6.632,5.423,10.309,7.619
					C142.633,124.672,142.829,126.681,143.331,129.022z"/>
				<path style="fill:#CB775E;" d="M130.419,92.976c3.883-1.879,8.276-2.691,12.574-2.323s8.485,2.214,11.993,4.726
					c1.32,7.007,1.847,14.164,1.565,21.289c-0.091,2.312-0.325,4.776-1.763,6.588c-0.989,1.247-2.468,2.047-4.016,2.415
					c-1.548,0.368-3.168,0.331-4.746,0.125c-6.557-0.86-13.646-6.083-17.146-11.694l-0.072-5.978
					c0.096-1.393,0.192-2.785,0.288-4.177L130.419,92.976z"/>
				<path style="fill:#FC916D;" d="M155.68,99.59c-1.41,1.24-4.05,0.39-4.46-1.44c-1.17,1.02-2.82,1.47-4.35,1.18
					c-1.53-0.28-2.9-1.3-3.62-2.68c-0.88,1.4-2.49,2.31-4.15,2.35c-1.65,0.03-3.3-0.81-4.25-2.16c-1.48,0.88-3.32,0.97-4.95,0.44
					l0.52-4.3c3.88-1.88,8.27-2.69,12.57-2.33c4.3,0.37,8.49,2.22,12,4.73C155.25,96.78,155.49,98.18,155.68,99.59z"/>
				<path style="fill:#CB775E;" d="M133.481,109.814c0,3.101-2.514,5.614-5.614,5.614c-3.101,0-5.614-2.514-5.614-5.614
					c0-3.101,2.514-5.614,5.614-5.614C130.967,104.2,133.481,106.714,133.481,109.814z"/>
				
					<path style="fill:none;stroke:#231F20;stroke-width:0.4256;stroke-linecap:round;stroke-linejoin:round;stroke-miterlimit:10;" d="
					M148.546,105.643c0.065,1.509,0.471,3.002,1.178,4.337c0.356-0.221,0.92-0.175,1.219,0.119c0.299,0.294,0.402,0.754,0.315,1.165
					c-0.086,0.41-0.344,0.771-0.665,1.041c-0.322,0.269-0.706,0.454-1.098,0.604"/>
				<path style="fill:#231F20;" d="M144.252,106.988c0,0.684-0.408,1.238-0.911,1.238c-0.503,0-0.911-0.554-0.911-1.238
					s0.408-1.238,0.911-1.238C143.844,105.75,144.252,106.304,144.252,106.988z"/>
				<path style="fill:#231F20;" d="M153.006,107.021c0,0.684-0.408,1.238-0.911,1.238c-0.503,0-0.911-0.554-0.911-1.238
					c0-0.683,0.408-1.238,0.911-1.238C152.598,105.783,153.006,106.337,153.006,107.021z"/>
			</g>
			
				<path style="fill:none;stroke:#231F20;stroke-width:0.4256;stroke-linecap:round;stroke-linejoin:round;stroke-miterlimit:10;" d="
				M140.773,113.459c0.861,1.863,2.322,3.443,4.113,4.446s3.902,1.423,5.94,1.184"/>
			<path style="fill:#231F20;" d="M139.208,103.3c0.144,0.174,0.395,0.207,0.621,0.216c1.582,0.063,3.18-0.429,4.454-1.368
				c0.225-0.166,0.444-0.35,0.591-0.587c0.147-0.238,0.214-0.538,0.118-0.801c-0.102-0.28-0.374-0.472-0.662-0.547
				c-0.288-0.075-0.592-0.049-0.887-0.004c-1.09,0.169-2.107,0.61-3.002,1.249C140.023,101.757,138.701,102.686,139.208,103.3z"/>
			<path style="fill:#231F20;" d="M152.811,103.458c0.23,0.104,0.472,0.196,0.724,0.198c0.252,0.002,0.518-0.102,0.651-0.315
				c0.12-0.192,0.115-0.442,0.034-0.654c-0.081-0.211-0.23-0.389-0.388-0.551c-0.66-0.678-1.529-1.15-2.457-1.333
				c-0.276-0.054-0.584-0.078-0.819,0.077C149.483,101.587,152.339,103.245,152.811,103.458z"/>
			<path style="fill:#7A4321;" d="M161.5,100.7c1.49,1.33,2.18,3.49,1.73,5.43c-0.44,1.93-1.99,3.57-3.89,4.13
				c0.33,0,0,2.35-0.08,2.56c-0.33,0.81-0.96,1.53-1.78,1.87c-0.34,0.14-0.63,0.22-0.88,0.24c0.11-5.13-0.2-10.26-0.92-15.34
				c-1.41,1.24-4.05,0.39-4.46-1.44c-1.17,1.02-2.82,1.47-4.35,1.18c-1.53-0.28-2.9-1.3-3.62-2.68c-0.88,1.4-2.49,2.31-4.15,2.35
				c-1.65,0.03-3.3-0.81-4.25-2.16c-1.48,0.88-3.32,0.97-4.95,0.44c-1.52-0.48-2.87-1.51-3.59-2.94c-2.69,0.55-5.78-0.25-7.38-2.49
				c-1.59-2.23-1.04-5.89,1.43-7.08c0.01-1.7,0.95-3.36,2.4-4.25c1.45-0.88,3.35-0.96,4.87-0.19c0.18-1.99,1.54-3.82,3.38-4.58
				c1.84-0.75,4.09-0.41,5.62,0.87c1.47-1.64,3.8-2.47,5.98-2.12c2.17,0.34,4.13,1.85,5.03,3.86c1.77-1.24,4.28-1.3,6.12-0.16
				c1.83,1.15,2.87,3.45,2.52,5.58c2.03-0.52,4.34,0.46,5.38,2.28c1.04,1.81,0.71,4.31-0.77,5.79c1.87,0.5,3.33,2.27,3.46,4.21
				C164.49,97.99,163.29,99.95,161.5,100.7z"/>
			<g>
				
					<path style="fill:none;stroke:#FFFFFF;stroke-width:0.4647;stroke-linecap:round;stroke-linejoin:round;stroke-miterlimit:10;" d="
					M147.501,106.715c0,2.801-2.271,5.072-5.072,5.072c-2.801,0-5.072-2.271-5.072-5.072c0-2.801,2.271-5.072,5.072-5.072
					C145.23,101.644,147.501,103.914,147.501,106.715z"/>
				
					<circle style="fill:none;stroke:#FFFFFF;stroke-width:0.4647;stroke-linecap:round;stroke-linejoin:round;stroke-miterlimit:10;" cx="155.518" cy="106.715" r="5.072"/>
				
					<path style="fill:none;stroke:#FFFFFF;stroke-width:0.4647;stroke-linecap:round;stroke-linejoin:round;stroke-miterlimit:10;" d="
					M150.528,107.041c-0.383-0.454-0.977-0.721-1.57-0.707s-1.174,0.311-1.533,0.784"/>
				
					<path style="fill:none;stroke:#FFFFFF;stroke-width:0.4647;stroke-linecap:round;stroke-linejoin:round;stroke-miterlimit:10;" d="
					M137.504,107.774c-1.465-0.589-3.049-0.879-4.628-0.848"/>
			</g>
			<path style="fill:#7A4321;" d="M134.61,100.5c-0.73,1.26-2.16,2.09-3.61,2.09c0.82,0.78,1.08,2.07,0.69,3.12
				c-1-0.94-2.34-1.51-3.82-1.51c-3.1,0-5.62,2.51-5.62,5.61c0,3.1,2.52,5.62,5.62,5.62c0.77,0,1.5-0.15,2.16-0.43
				c0.08,0.93-0.23,1.9-0.86,2.59c0.84,1.29,0.25,3.27-1.15,3.89c-1.41,0.63-3.27-0.26-3.67-1.74c-1.4,0.57-3.16,0.1-4.09-1.1
				c-0.92-1.21-0.92-3.03,0-4.24c-1.97-1.28-3.34-3.44-3.67-5.77c-0.33-2.33,0.39-4.78,1.93-6.56c-1.91-0.97-3.05-3.27-2.66-5.38
				c0.38-2.1,2.26-3.85,4.4-4.08c2.5-0.26,5.94-1.38,8.35-0.67s4.72,2.22,5.99,4.4C135.33,97.59,135.33,99.24,134.61,100.5z"/>
		</g>
		<path style="fill:#EBE9E7;" d="M137.828,146.498l-5.01,6l-13.77-17.17c1.75-0.41,3.52-0.73,5.26-0.95L137.828,146.498z"/>
		<path style="fill:#EBE9E7;" d="M148.878,132.398l-5.55,19.38l-5.5-5.28l6.69-13.78
			C145.988,132.718,147.438,132.578,148.878,132.398z"/>
		<path style="fill:#211F20;" d="M166.35,167.68c-5.92-0.9-11.88-1.48-17.8-1.56c5.14-0.99,10.99-0.68,16.3,0.15
			C165.38,166.7,165.88,167.17,166.35,167.68z"/>
		<g>
			<path style="fill:none;stroke:#211F20;stroke-width:0.5;stroke-linecap:round;stroke-linejoin:round;stroke-miterlimit:10;" d="
				M100.709,219.337c22.133,8.667,48.03,7.135,68.987-4.082"/>
			<path style="fill:none;stroke:#211F20;stroke-width:0.5;stroke-linecap:round;stroke-linejoin:round;stroke-miterlimit:10;" d="
				M139.602,258.894c0.336-13.126-0.312-26.277-1.936-39.306"/>
			<path style="fill:none;stroke:#211F20;stroke-width:0.5;stroke-linecap:round;stroke-linejoin:round;stroke-miterlimit:10;" d="
				M142.438,219.205c1.581,6.168,2.454,12.517,2.599,18.883c0.023,0.996,0.022,2.021-0.343,2.948
				c-0.625,1.584-2.238,2.607-3.901,2.978c-1.662,0.37-3.392,0.191-5.085,0.011"/>
			<path style="fill:none;stroke:#211F20;stroke-width:0.5;stroke-linecap:round;stroke-linejoin:round;stroke-miterlimit:10;" d="
				M94.135,316.646c3.914,0.86,7.961,1.109,11.95,0.735"/>
			<path style="fill:none;stroke:#211F20;stroke-width:0.5;stroke-linecap:round;stroke-linejoin:round;stroke-miterlimit:10;" d="
				M191.871,316.975c3.518-0.337,6.997-1.086,10.343-2.228"/>
			<path style="fill:none;stroke:#211F20;stroke-width:0.5;stroke-linecap:round;stroke-linejoin:round;stroke-miterlimit:10;" d="
				M108.174,216.244c-0.097-0.054-0.193-0.107-0.29-0.161c0.083,5.725,0.134,11.628-2.017,16.934
				c-0.547,1.35-1.252,2.669-2.319,3.661c-1.067,0.991-2.545,1.618-3.984,1.395"/>
			<path style="fill:none;stroke:#211F20;stroke-width:0.5;stroke-linecap:round;stroke-linejoin:round;stroke-miterlimit:10;" d="
				M135.392,257.266c0.017,21.365-7.338,42.667-20.533,59.47c4.399,3.29,6.314,8.74,7.283,14.147
				c0.969,5.407,0.553,10.956,0.083,16.429c-1.907,22.215-4.66,44.357-8.251,66.362"/>
			<path style="fill:none;stroke:#211F20;stroke-width:0.5;stroke-linecap:round;stroke-linejoin:round;stroke-miterlimit:10;" d="
				M96.445,410.474c5.957-0.21,11.919-0.26,17.876-0.47h4.47"/>
			<path style="fill:none;stroke:#211F20;stroke-width:0.5;stroke-linecap:round;stroke-linejoin:round;stroke-miterlimit:10;" d="
				M158.356,413.909c-1.072-24.472,1.944-49.118,8.883-72.61c2.609-8.831,6.302-18.18,14.189-22.933
				c-15.627-15.177-28.248-33.416-36.75-53.472"/>
			
				<line style="fill:none;stroke:#211F20;stroke-width:0.5;stroke-linecap:round;stroke-linejoin:round;stroke-miterlimit:10;" x1="155.079" y1="409.734" x2="174.04" y2="409.734"/>
			<path style="fill:none;stroke:#211F20;stroke-width:0.5;stroke-linecap:round;stroke-linejoin:round;stroke-miterlimit:10;" d="
				M162.772,214.81c1.712,4.446,3.423,8.892,5.134,13.337c0.694,1.803,1.459,3.702,3.003,4.862c1.544,1.161,4.121,1.166,5.112-0.492
				"/>
			<path style="fill:none;stroke:#211F20;stroke-width:0.5;stroke-linecap:round;stroke-linejoin:round;stroke-miterlimit:10;" d="
				M82.527,188.288c2.352-1.131,4.883-1.891,7.469-2.241"/>
			<path style="fill:none;stroke:#211F20;stroke-width:0.5;stroke-linecap:round;stroke-linejoin:round;stroke-miterlimit:10;" d="
				M85.376,180.958c6.406-3.514,14.178-4.454,21.238-2.569"/>
			<path style="fill:none;stroke:#211F20;stroke-width:0.5;stroke-linecap:round;stroke-linejoin:round;stroke-miterlimit:10;" d="
				M108.055,140.684c3.785,12.232,4.777,25.319,2.876,37.981"/>
			<path style="fill:none;stroke:#211F20;stroke-width:0.5;stroke-linecap:round;stroke-linejoin:round;stroke-miterlimit:10;" d="
				M158.247,132.241c4.699,9.944,6.853,21.079,6.202,32.058"/>
			<path style="fill:none;stroke:#211F20;stroke-width:0.5;stroke-linecap:round;stroke-linejoin:round;stroke-miterlimit:10;" d="
				M185.033,166.128c-1.827,0.862-3.529,1.989-5.036,3.335"/>
			<path style="fill:none;stroke:#211F20;stroke-width:0.5;stroke-linecap:round;stroke-linejoin:round;stroke-miterlimit:10;" d="
				M181.465,161.162c-4.79,1.2-9.343,3.336-13.328,6.252"/>
		</g>
	</g>
</g>
</svg>
